<?xml version="1.0" encoding="utf-8"?>
<!-- Generator: Adobe Illustrator 23.0.5, SVG Export Plug-In . SVG Version: 6.00 Build 0)  -->
<svg version="1.1" xmlns="http://www.w3.org/2000/svg" xmlns:xlink="http://www.w3.org/1999/xlink" x="0px" y="0px"
	 viewBox="0 0 2000 2000" style="enable-background:new 0 0 2000 2000;" xml:space="preserve">
<style type="text/css">
	.st0{fill-rule:evenodd;clip-rule:evenodd;fill:#E6DFD5;}
	.st1{fill-rule:evenodd;clip-rule:evenodd;fill:#A49D97;}
</style>
<g id="Background">
	<rect x="0" y="0" class="st0" width="2000" height="2000"/>
</g>
<g id="Pattern">
	<polygon class="st1" points="0,165.2 1.3,166.5 0,167.7 	"/>
	<polygon class="st1" points="0,165.2 133.5,31.7 136,34.3 1.3,169 0,167.7 	"/>
	<polygon class="st1" points="139,31.2 261,31.2 229.7,0 234.8,0 266.5,31.7 269.6,34.8 265.3,34.8 134.7,34.8 130.4,34.8 
		133.5,31.7 165.2,0 170.3,0 	"/>
	
		<rect x="330.9" y="5.1" transform="matrix(0.7071 -0.7071 0.7071 0.7071 26.455 264.6082)" class="st1" width="3.6" height="190.5"/>
	
		<rect x="372.1" y="98.6" transform="matrix(0.7071 -0.7071 0.7071 0.7071 65.9152 359.8741)" class="st1" width="190.5" height="3.6"/>
	<polygon class="st1" points="539,31.2 661,31.2 629.7,0 634.8,0 666.5,31.7 669.6,34.8 665.3,34.8 534.7,34.8 530.4,34.8 
		533.5,31.7 565.2,0 570.3,0 	"/>
	
		<rect x="730.9" y="5.1" transform="matrix(0.7071 -0.7071 0.7071 0.7071 143.614 547.4526)" class="st1" width="3.6" height="190.5"/>
	
		<rect x="772.1" y="98.6" transform="matrix(0.7071 -0.7071 0.7071 0.7071 183.0725 642.7168)" class="st1" width="190.5" height="3.6"/>
	<polygon class="st1" points="939,31.2 1061,31.2 1029.7,0 1034.8,0 1066.5,31.7 1069.6,34.8 1065.3,34.8 934.7,34.8 930.4,34.8 
		933.5,31.7 965.2,0 970.3,0 	"/>
	
		<rect x="1130.9" y="5.1" transform="matrix(0.7071 -0.7071 0.7071 0.7071 260.7729 830.2969)" class="st1" width="3.6" height="190.5"/>
	
		<rect x="1172.1" y="98.6" transform="matrix(0.7071 -0.7071 0.7071 0.7071 300.2298 925.5595)" class="st1" width="190.5" height="3.6"/>
	<polygon class="st1" points="1339,31.2 1461,31.2 1429.7,0 1434.8,0 1466.5,31.7 1469.6,34.8 1465.3,34.8 1334.7,34.8 1330.4,34.8 
		1333.5,31.7 1365.2,0 1370.3,0 	"/>
	
		<rect x="1530.9" y="5.1" transform="matrix(0.7071 -0.7071 0.7071 0.7071 377.926 1113.1348)" class="st1" width="3.6" height="190.5"/>
	
		<rect x="1572.1" y="98.6" transform="matrix(0.7071 -0.7071 0.7071 0.7071 417.3872 1208.4025)" class="st1" width="190.5" height="3.6"/>
	<polygon class="st1" points="1739,31.2 1861,31.2 1829.7,0 1834.8,0 1866.5,31.7 1869.6,34.8 1865.3,34.8 1734.7,34.8 1730.4,34.8 
		1733.5,31.7 1765.2,0 1770.3,0 	"/>
	<polygon class="st1" points="1866.5,31.7 2000,165.2 2000,167.7 1998.7,169 1864,34.3 	"/>
	<polygon class="st1" points="1998.7,166.5 2000,165.2 2000,167.7 	"/>
	<polygon class="st1" points="0,231.2 61,231.2 0,170.3 0,165.2 1.3,166.5 66.5,231.7 69.6,234.8 65.3,234.8 0,234.8 	"/>
	<polygon class="st1" points="0,565.2 1.3,566.5 0,567.7 	"/>
	
		<rect x="130.9" y="205.1" transform="matrix(0.7071 -0.7071 0.7071 0.7071 -173.5468 181.7644)" class="st1" width="3.6" height="190.5"/>
	<polygon class="st1" points="0,565.2 133.5,431.7 136,434.3 1.3,569 0,567.7 	"/>
	<path class="st1" d="M339,231.2H461l-61-61L339,231.2L339,231.2z M465.3,234.8H334.7h-4.3l3-3l65.3-65.3l1.3-1.3l1.3,1.3l65.3,65.3
		l3,3H465.3z"/>
	<path class="st1" d="M139,431.2H261l-61-61L139,431.2L139,431.2z M265.3,434.8H134.7h-4.3l3-3l65.3-65.3l1.3-1.3l1.3,1.3l65.3,65.3
		l3,3H265.3z"/>
	
		<rect x="330.9" y="405.1" transform="matrix(0.7071 -0.7071 0.7071 0.7071 -256.39 381.7695)" class="st1" width="3.6" height="190.5"/>
	
		<rect x="172.1" y="298.6" transform="matrix(0.7071 -0.7071 0.7071 0.7071 -134.0852 277.031)" class="st1" width="190.5" height="3.6"/>
	
		<rect x="530.9" y="205.1" transform="matrix(0.7071 -0.7071 0.7071 0.7071 -56.3872 464.6122)" class="st1" width="3.6" height="190.5"/>
	
		<rect x="372.1" y="498.6" transform="matrix(0.7071 -0.7071 0.7071 0.7071 -216.9276 477.0287)" class="st1" width="190.5" height="3.6"/>
	<path class="st1" d="M739,231.2H861l-61-61L739,231.2L739,231.2z M865.3,234.8H734.7h-4.3l3-3l65.3-65.3l1.3-1.3l1.3,1.3l65.3,65.3
		l3,3H865.3z"/>
	<path class="st1" d="M539,431.2H661l-61-61L539,431.2L539,431.2z M665.3,434.8H534.7h-4.3l3-3l65.3-65.3l1.3-1.3l1.3,1.3l65.3,65.3
		l3,3H665.3z"/>
	
		<rect x="730.9" y="405.1" transform="matrix(0.7071 -0.7071 0.7071 0.7071 -139.2299 664.6151)" class="st1" width="3.6" height="190.5"/>
	
		<rect x="572.1" y="298.6" transform="matrix(0.7071 -0.7071 0.7071 0.7071 -16.9287 559.8715)" class="st1" width="190.5" height="3.6"/>
	
		<rect x="930.9" y="205.1" transform="matrix(0.7071 -0.7071 0.7071 0.7071 60.7729 747.4578)" class="st1" width="3.6" height="190.5"/>
	
		<rect x="772.1" y="498.6" transform="matrix(0.7071 -0.7071 0.7071 0.7071 -99.7714 759.8703)" class="st1" width="190.5" height="3.6"/>
	<path class="st1" d="M1139,231.2H1261l-61-61L1139,231.2L1139,231.2z M1265.3,234.8h-130.5h-4.3l3-3l65.3-65.3l1.3-1.3l1.3,1.3
		l65.3,65.3l3,3H1265.3z"/>
	<path class="st1" d="M939,431.2H1061l-61-61L939,431.2L939,431.2z M1065.3,434.8H934.7h-4.3l3-3l65.3-65.3l1.3-1.3l1.3,1.3
		l65.3,65.3l3,3H1065.3z"/>
	
		<rect x="1130.9" y="405.1" transform="matrix(0.7071 -0.7071 0.7071 0.7071 -22.0699 947.4606)" class="st1" width="3.6" height="190.5"/>
	
		<rect x="972.1" y="298.6" transform="matrix(0.7071 -0.7071 0.7071 0.7071 100.2275 842.713)" class="st1" width="190.5" height="3.6"/>
	
		<rect x="1330.9" y="205.1" transform="matrix(0.7071 -0.7071 0.7071 0.7071 177.9287 1030.2968)" class="st1" width="3.6" height="190.5"/>
	
		<rect x="1172.1" y="498.6" transform="matrix(0.7071 -0.7071 0.7071 0.7071 17.3848 1042.7119)" class="st1" width="190.5" height="3.6"/>
	<path class="st1" d="M1539,231.2H1661l-61-61L1539,231.2L1539,231.2z M1665.3,234.8h-130.5h-4.3l3-3l65.3-65.3l1.3-1.3l1.3,1.3
		l65.3,65.3l3,3H1665.3z"/>
	<path class="st1" d="M1339,431.2H1461l-61-61L1339,431.2L1339,431.2z M1465.3,434.8h-130.5h-4.3l3-3l65.3-65.3l1.3-1.3l1.3,1.3
		l65.3,65.3l3,3H1465.3z"/>
	
		<rect x="1530.9" y="405.1" transform="matrix(0.7071 -0.7071 0.7071 0.7071 95.086 1230.2979)" class="st1" width="3.6" height="190.5"/>
	
		<rect x="1372.1" y="298.6" transform="matrix(0.7071 -0.7071 0.7071 0.7071 217.3838 1125.5549)" class="st1" width="190.5" height="3.6"/>
	
		<rect x="1730.9" y="205.1" transform="matrix(0.7071 -0.7071 0.7071 0.7071 295.0872 1313.1409)" class="st1" width="3.6" height="190.5"/>
	
		<rect x="1572.1" y="498.6" transform="matrix(0.7071 -0.7071 0.7071 0.7071 134.541 1325.5538)" class="st1" width="190.5" height="3.6"/>
	<polygon class="st1" points="1939,231.2 2000,231.2 2000,234.8 1934.7,234.8 1930.4,234.8 1933.5,231.7 1998.7,166.5 2000,165.2 
		2000,170.3 	"/>
	<path class="st1" d="M1739,431.2H1861l-61-61L1739,431.2L1739,431.2z M1865.3,434.8h-130.5h-4.3l3-3l65.3-65.3l1.3-1.3l1.3,1.3
		l65.3,65.3l3,3H1865.3z"/>
	<polygon class="st1" points="1866.5,431.7 2000,565.2 2000,567.7 1998.7,569 1864,434.3 	"/>
	
		<rect x="1772.1" y="298.6" transform="matrix(0.7071 -0.7071 0.7071 0.7071 334.5466 1408.4059)" class="st1" width="190.5" height="3.6"/>
	<polygon class="st1" points="1998.7,566.5 2000,565.2 2000,567.7 	"/>
	<polygon class="st1" points="0,631.2 61,631.2 0,570.3 0,565.2 1.3,566.5 66.5,631.7 69.6,634.8 65.3,634.8 0,634.8 	"/>
	<polygon class="st1" points="0,965.2 1.3,966.5 0,967.7 	"/>
	
		<rect x="130.9" y="605.1" transform="matrix(0.7071 -0.7071 0.7071 0.7071 -456.3907 298.9228)" class="st1" width="3.6" height="190.5"/>
	<polygon class="st1" points="0,965.2 133.5,831.7 136,834.3 1.3,969 0,967.7 	"/>
	<path class="st1" d="M339,631.2H461l-61-61L339,631.2L339,631.2z M465.3,634.8H334.7h-4.3l3-3l65.3-65.3l1.3-1.3l1.3,1.3l65.3,65.3
		l3,3H465.3z"/>
	<path class="st1" d="M139,831.2H261l-61-61L139,831.2L139,831.2z M265.3,834.8H134.7h-4.3l3-3l65.3-65.3l1.3-1.3l1.3,1.3l65.3,65.3
		l3,3H265.3z"/>
	
		<rect x="330.9" y="805.1" transform="matrix(0.7071 -0.7071 0.7071 0.7071 -539.2355 498.9296)" class="st1" width="3.6" height="190.5"/>
	
		<rect x="172.1" y="698.6" transform="matrix(0.7071 -0.7071 0.7071 0.7071 -416.9279 394.1883)" class="st1" width="190.5" height="3.6"/>
	
		<rect x="530.9" y="605.1" transform="matrix(0.7071 -0.7071 0.7071 0.7071 -339.2328 581.7723)" class="st1" width="3.6" height="190.5"/>
	
		<rect x="372.1" y="898.6" transform="matrix(0.7071 -0.7071 0.7071 0.7071 -499.7692 594.1849)" class="st1" width="190.5" height="3.6"/>
	<path class="st1" d="M739,631.2H861l-61-61L739,631.2L739,631.2z M865.3,634.8H734.7h-4.3l3-3l65.3-65.3l1.3-1.3l1.3,1.3l65.3,65.3
		l3,3H865.3z"/>
	<path class="st1" d="M539,831.2H661l-61-61L539,831.2L539,831.2z M665.3,834.8H534.7h-4.3l3-3l65.3-65.3l1.3-1.3l1.3,1.3l65.3,65.3
		l3,3H665.3z"/>
	
		<rect x="730.9" y="805.1" transform="matrix(0.7071 -0.7071 0.7071 0.7071 -422.0755 781.7751)" class="st1" width="3.6" height="190.5"/>
	
		<rect x="572.1" y="698.6" transform="matrix(0.7071 -0.7071 0.7071 0.7071 -299.7703 677.0276)" class="st1" width="190.5" height="3.6"/>
	
		<rect x="930.9" y="605.1" transform="matrix(0.7071 -0.7071 0.7071 0.7071 -222.0727 864.6179)" class="st1" width="3.6" height="190.5"/>
	
		<rect x="772.1" y="898.6" transform="matrix(0.7071 -0.7071 0.7071 0.7071 -382.613 877.0265)" class="st1" width="190.5" height="3.6"/>
	<path class="st1" d="M1139,631.2H1261l-61-61L1139,631.2L1139,631.2z M1265.3,634.8h-130.5h-4.3l3-3l65.3-65.3l1.3-1.3l1.3,1.3
		l65.3,65.3l3,3H1265.3z"/>
	<path class="st1" d="M939,831.2H1061l-61-61L939,831.2L939,831.2z M1065.3,834.8H934.7h-4.3l3-3l65.3-65.3l1.3-1.3l1.3,1.3
		l65.3,65.3l3,3H1065.3z"/>
	
		<rect x="1130.9" y="805.1" transform="matrix(0.7071 -0.7071 0.7071 0.7071 -304.9154 1064.6206)" class="st1" width="3.6" height="190.5"/>
	
		<rect x="972.1" y="698.6" transform="matrix(0.7071 -0.7071 0.7071 0.7071 -182.6141 959.8692)" class="st1" width="190.5" height="3.6"/>
	
		<rect x="1330.9" y="605.1" transform="matrix(0.7071 -0.7071 0.7071 0.7071 -104.9151 1147.4551)" class="st1" width="3.6" height="190.5"/>
	
		<rect x="1172.1" y="898.6" transform="matrix(0.7071 -0.7071 0.7071 0.7071 -265.4568 1159.868)" class="st1" width="190.5" height="3.6"/>
	<path class="st1" d="M1539,631.2H1661l-61-61L1539,631.2L1539,631.2z M1665.3,634.8h-130.5h-4.3l3-3l65.3-65.3l1.3-1.3l1.3,1.3
		l65.3,65.3l3,3H1665.3z"/>
	<path class="st1" d="M1339,831.2H1461l-61-61L1339,831.2L1339,831.2z M1465.3,834.8h-130.5h-4.3l3-3l65.3-65.3l1.3-1.3l1.3,1.3
		l65.3,65.3l3,3H1465.3z"/>
	
		<rect x="1530.9" y="805.1" transform="matrix(0.7071 -0.7071 0.7071 0.7071 -187.7578 1347.4562)" class="st1" width="3.6" height="190.5"/>
	
		<rect x="1372.1" y="698.6" transform="matrix(0.7071 -0.7071 0.7071 0.7071 -65.4578 1242.7111)" class="st1" width="190.5" height="3.6"/>
	
		<rect x="1730.9" y="605.1" transform="matrix(0.7071 -0.7071 0.7071 0.7071 12.2434 1430.2992)" class="st1" width="3.6" height="190.5"/>
	
		<rect x="1572.1" y="898.6" transform="matrix(0.7071 -0.7071 0.7071 0.7071 -148.3006 1442.71)" class="st1" width="190.5" height="3.6"/>
	<polygon class="st1" points="1939,631.2 2000,631.2 2000,634.8 1934.7,634.8 1930.4,634.8 1933.5,631.7 1998.7,566.5 2000,565.2 
		2000,570.3 	"/>
	<path class="st1" d="M1739,831.2H1861l-61-61L1739,831.2L1739,831.2z M1865.3,834.8h-130.5h-4.3l3-3l65.3-65.3l1.3-1.3l1.3,1.3
		l65.3,65.3l3,3H1865.3z"/>
	<polygon class="st1" points="1866.5,831.7 2000,965.2 2000,967.7 1998.7,969 1864,834.3 	"/>
	
		<rect x="1772.1" y="698.6" transform="matrix(0.7071 -0.7071 0.7071 0.7071 51.7034 1525.5637)" class="st1" width="190.5" height="3.6"/>
	<polygon class="st1" points="1998.7,966.5 2000,965.2 2000,967.7 	"/>
	<polygon class="st1" points="0,1031.2 61,1031.2 0,970.3 0,965.2 1.3,966.5 66.5,1031.7 69.6,1034.8 65.3,1034.8 0,1034.8 	"/>
	<polygon class="st1" points="0,1365.2 1.3,1366.5 0,1367.7 	"/>
	
		<rect x="130.9" y="1005.1" transform="matrix(0.7071 -0.7071 0.7071 0.7071 -739.2345 416.0812)" class="st1" width="3.6" height="190.5"/>
	<polygon class="st1" points="0,1365.2 133.5,1231.7 136,1234.3 1.3,1369 0,1367.7 	"/>
	<path class="st1" d="M339,1031.2H461l-61-61L339,1031.2L339,1031.2z M465.3,1034.8H334.7h-4.3l3-3l65.3-65.3l1.3-1.3l1.3,1.3
		l65.3,65.3l3,3H465.3z"/>
	<path class="st1" d="M139,1231.2H261l-61-61L139,1231.2L139,1231.2z M265.3,1234.8H134.7h-4.3l3-3l65.3-65.3l1.3-1.3l1.3,1.3
		l65.3,65.3l3,3H265.3z"/>
	
		<rect x="330.9" y="1205.1" transform="matrix(0.7071 -0.7071 0.7071 0.7071 -822.0773 616.0829)" class="st1" width="3.6" height="190.5"/>
	
		<rect x="172.1" y="1098.6" transform="matrix(0.7071 -0.7071 0.7071 0.7071 -699.7706 511.3456)" class="st1" width="190.5" height="3.6"/>
	
		<rect x="530.9" y="1005.1" transform="matrix(0.7071 -0.7071 0.7071 0.7071 -622.0782 698.9324)" class="st1" width="3.6" height="190.5"/>
	
		<rect x="372.1" y="1298.6" transform="matrix(0.7071 -0.7071 0.7071 0.7071 -782.6146 711.3486)" class="st1" width="190.5" height="3.6"/>
	<path class="st1" d="M739,1031.2H861l-61-61L739,1031.2L739,1031.2z M865.3,1034.8H734.7h-4.3l3-3l65.3-65.3l1.3-1.3l1.3,1.3
		l65.3,65.3l3,3H865.3z"/>
	<path class="st1" d="M539,1231.2H661l-61-61L539,1231.2L539,1231.2z M665.3,1234.8H534.7h-4.3l3-3l65.3-65.3l1.3-1.3l1.3,1.3
		l65.3,65.3l3,3H665.3z"/>
	
		<rect x="730.9" y="1205.1" transform="matrix(0.7071 -0.7071 0.7071 0.7071 -704.9189 898.9268)" class="st1" width="3.6" height="190.5"/>
	
		<rect x="572.1" y="1098.6" transform="matrix(0.7071 -0.7071 0.7071 0.7071 -582.6119 794.1838)" class="st1" width="190.5" height="3.6"/>
	
		<rect x="930.9" y="1005.1" transform="matrix(0.7071 -0.7071 0.7071 0.7071 -504.9182 981.778)" class="st1" width="3.6" height="190.5"/>
	
		<rect x="772.1" y="1298.6" transform="matrix(0.7071 -0.7071 0.7071 0.7071 -665.4567 994.1919)" class="st1" width="190.5" height="3.6"/>
	<path class="st1" d="M1139,1031.2H1261l-61-61L1139,1031.2L1139,1031.2z M1265.3,1034.8h-130.5h-4.3l3-3l65.3-65.3l1.3-1.3l1.3,1.3
		l65.3,65.3l3,3H1265.3z"/>
	<path class="st1" d="M939,1231.2H1061l-61-61L939,1231.2L939,1231.2z M1065.3,1234.8H934.7h-4.3l3-3l65.3-65.3l1.3-1.3l1.3,1.3
		l65.3,65.3l3,3H1065.3z"/>
	
		<rect x="1130.9" y="1205.1" transform="matrix(0.7071 -0.7071 0.7071 0.7071 -587.7605 1181.7706)" class="st1" width="3.6" height="190.5"/>
	
		<rect x="972.1" y="1098.6" transform="matrix(0.7071 -0.7071 0.7071 0.7071 -465.4557 1077.0254)" class="st1" width="190.5" height="3.6"/>
	
		<rect x="1330.9" y="1005.1" transform="matrix(0.7071 -0.7071 0.7071 0.7071 -387.7589 1264.6135)" class="st1" width="3.6" height="190.5"/>
	
		<rect x="1172.1" y="1298.6" transform="matrix(0.7071 -0.7071 0.7071 0.7071 -548.2989 1277.0352)" class="st1" width="190.5" height="3.6"/>
	<path class="st1" d="M1539,1031.2H1661l-61-61L1539,1031.2L1539,1031.2z M1665.3,1034.8h-130.5h-4.3l3-3l65.3-65.3l1.3-1.3l1.3,1.3
		l65.3,65.3l3,3H1665.3z"/>
	<path class="st1" d="M1339,1231.2H1461l-61-61L1339,1231.2L1339,1231.2z M1465.3,1234.8h-130.5h-4.3l3-3l65.3-65.3l1.3-1.3l1.3,1.3
		l65.3,65.3l3,3H1465.3z"/>
	
		<rect x="1530.9" y="1205.1" transform="matrix(0.7071 -0.7071 0.7071 0.7071 -470.6029 1464.6028)" class="st1" width="3.6" height="190.5"/>
	
		<rect x="1372.1" y="1098.6" transform="matrix(0.7071 -0.7071 0.7071 0.7071 -348.2994 1359.8673)" class="st1" width="190.5" height="3.6"/>
	
		<rect x="1730.9" y="1005.1" transform="matrix(0.7071 -0.7071 0.7071 0.7071 -270.6004 1547.4576)" class="st1" width="3.6" height="190.5"/>
	
		<rect x="1572.1" y="1298.6" transform="matrix(0.7071 -0.7071 0.7071 0.7071 -431.1409 1559.8788)" class="st1" width="190.5" height="3.6"/>
	<polygon class="st1" points="1939,1031.2 2000,1031.2 2000,1034.8 1934.7,1034.8 1930.4,1034.8 1933.5,1031.7 1998.7,966.5 
		2000,965.2 2000,970.3 	"/>
	<path class="st1" d="M1739,1231.2H1861l-61-61L1739,1231.2L1739,1231.2z M1865.3,1234.8h-130.5h-4.3l3-3l65.3-65.3l1.3-1.3l1.3,1.3
		l65.3,65.3l3,3H1865.3z"/>
	<polygon class="st1" points="1866.5,1231.7 2000,1365.2 2000,1367.7 1998.7,1369 1864,1234.3 	"/>
	
		<rect x="1772.1" y="1098.6" transform="matrix(0.7071 -0.7071 0.7071 0.7071 -231.1399 1642.7216)" class="st1" width="190.5" height="3.6"/>
	<polygon class="st1" points="1998.7,1366.5 2000,1365.2 2000,1367.7 	"/>
	<polygon class="st1" points="0,1431.2 61,1431.2 0,1370.3 0,1365.2 1.3,1366.5 66.5,1431.7 69.6,1434.8 65.3,1434.8 0,1434.8 	"/>
	<polygon class="st1" points="0,1765.2 1.3,1766.5 0,1767.7 	"/>
	
		<rect x="130.9" y="1405.1" transform="matrix(0.7071 -0.7071 0.7071 0.7071 -1022.0732 533.233)" class="st1" width="3.6" height="190.5"/>
	<polygon class="st1" points="0,1765.2 133.5,1631.7 136,1634.3 1.3,1769 0,1767.7 	"/>
	<path class="st1" d="M339,1431.2H461l-61-61L339,1431.2L339,1431.2z M465.3,1434.8H334.7h-4.3l3-3l65.3-65.3l1.3-1.3l1.3,1.3
		l65.3,65.3l3,3H465.3z"/>
	<path class="st1" d="M139,1631.2H261l-61-61L139,1631.2L139,1631.2z M265.3,1634.8H134.7h-4.3l3-3l65.3-65.3l1.3-1.3l1.3,1.3
		l65.3,65.3l3,3H265.3z"/>
	
		<rect x="330.9" y="1605.1" transform="matrix(0.7071 -0.7071 0.7071 0.7071 -1104.9214 733.2415)" class="st1" width="3.6" height="190.5"/>
	
		<rect x="172.1" y="1498.6" transform="matrix(0.7071 -0.7071 0.7071 0.7071 -982.6191 628.5105)" class="st1" width="190.5" height="3.6"/>
	
		<rect x="530.9" y="1405.1" transform="matrix(0.7071 -0.7071 0.7071 0.7071 -904.9203 816.0842)" class="st1" width="3.6" height="190.5"/>
	
		<rect x="372.1" y="1698.6" transform="matrix(0.7071 -0.7071 0.7071 0.7071 -1065.4581 828.5066)" class="st1" width="190.5" height="3.6"/>
	<path class="st1" d="M739,1431.2H861l-61-61L739,1431.2L739,1431.2z M865.3,1434.8H734.7h-4.3l3-3l65.3-65.3l1.3-1.3l1.3,1.3
		l65.3,65.3l3,3H865.3z"/>
	<path class="st1" d="M539,1631.2H661l-61-61L539,1631.2L539,1631.2z M665.3,1634.8H534.7h-4.3l3-3l65.3-65.3l1.3-1.3l1.3,1.3
		l65.3,65.3l3,3H665.3z"/>
	
		<rect x="730.9" y="1605.1" transform="matrix(0.7071 -0.7071 0.7071 0.7071 -987.763 1016.0853)" class="st1" width="3.6" height="190.5"/>
	
		<rect x="572.1" y="1498.6" transform="matrix(0.7071 -0.7071 0.7071 0.7071 -865.4576 911.3493)" class="st1" width="190.5" height="3.6"/>
	
		<rect x="930.9" y="1405.1" transform="matrix(0.7071 -0.7071 0.7071 0.7071 -787.7619 1098.9281)" class="st1" width="3.6" height="190.5"/>
	
		<rect x="772.1" y="1698.6" transform="matrix(0.7071 -0.7071 0.7071 0.7071 -948.3003 1111.3499)" class="st1" width="190.5" height="3.6"/>
	<path class="st1" d="M1139,1431.2H1261l-61-61L1139,1431.2L1139,1431.2z M1265.3,1434.8h-130.5h-4.3l3-3l65.3-65.3l1.3-1.3l1.3,1.3
		l65.3,65.3l3,3H1265.3z"/>
	<path class="st1" d="M939,1631.2H1061l-61-61L939,1631.2L939,1631.2z M1065.3,1634.8H934.7h-4.3l3-3l65.3-65.3l1.3-1.3l1.3,1.3
		l65.3,65.3l3,3H1065.3z"/>
	
		<rect x="1130.9" y="1605.1" transform="matrix(0.7071 -0.7071 0.7071 0.7071 -870.6046 1298.9292)" class="st1" width="3.6" height="190.5"/>
	
		<rect x="972.1" y="1498.6" transform="matrix(0.7071 -0.7071 0.7071 0.7071 -748.2997 1194.1926)" class="st1" width="190.5" height="3.6"/>
	
		<rect x="1330.9" y="1405.1" transform="matrix(0.7071 -0.7071 0.7071 0.7071 -670.6027 1381.7603)" class="st1" width="3.6" height="190.5"/>
	
		<rect x="1172.1" y="1698.6" transform="matrix(0.7071 -0.7071 0.7071 0.7071 -831.1425 1394.1931)" class="st1" width="190.5" height="3.6"/>
	<path class="st1" d="M1539,1431.2H1661l-61-61L1539,1431.2L1539,1431.2z M1665.3,1434.8h-130.5h-4.3l3-3l65.3-65.3l1.3-1.3l1.3,1.3
		l65.3,65.3l3,3H1665.3z"/>
	<path class="st1" d="M1339,1631.2H1461l-61-61L1339,1631.2L1339,1631.2z M1465.3,1634.8h-130.5h-4.3l3-3l65.3-65.3l1.3-1.3l1.3,1.3
		l65.3,65.3l3,3H1465.3z"/>
	
		<rect x="1530.9" y="1605.1" transform="matrix(0.7071 -0.7071 0.7071 0.7071 -753.4454 1581.7596)" class="st1" width="3.6" height="190.5"/>
	
		<rect x="1372.1" y="1498.6" transform="matrix(0.7071 -0.7071 0.7071 0.7071 -631.1417 1477.0361)" class="st1" width="190.5" height="3.6"/>
	
		<rect x="1730.9" y="1405.1" transform="matrix(0.7071 -0.7071 0.7071 0.7071 -553.4458 1664.6027)" class="st1" width="3.6" height="190.5"/>
	
		<rect x="1572.1" y="1698.6" transform="matrix(0.7071 -0.7071 0.7071 0.7071 -713.9844 1677.0367)" class="st1" width="190.5" height="3.6"/>
	<polygon class="st1" points="1939,1431.2 2000,1431.2 2000,1434.8 1934.7,1434.8 1930.4,1434.8 1933.5,1431.7 1998.7,1366.5 
		2000,1365.2 2000,1370.3 	"/>
	<path class="st1" d="M1739,1631.2H1861l-61-61L1739,1631.2L1739,1631.2z M1865.3,1634.8h-130.5h-4.3l3-3l65.3-65.3l1.3-1.3l1.3,1.3
		l65.3,65.3l3,3H1865.3z"/>
	<polygon class="st1" points="1866.5,1631.7 2000,1765.2 2000,1767.7 1998.7,1769 1864,1634.3 	"/>
	
		<rect x="1772.1" y="1498.6" transform="matrix(0.7071 -0.7071 0.7071 0.7071 -513.9822 1759.8939)" class="st1" width="190.5" height="3.6"/>
	<polygon class="st1" points="1998.7,1766.5 2000,1765.2 2000,1767.7 	"/>
	<polygon class="st1" points="0,1831.2 61,1831.2 0,1770.3 0,1765.2 1.3,1766.5 66.5,1831.7 69.6,1834.8 65.3,1834.8 0,1834.8 	"/>
	
		<rect x="130.9" y="1805.1" transform="matrix(0.7071 -0.7071 0.7071 0.7071 -1304.9153 650.3896)" class="st1" width="3.6" height="190.5"/>
	<path class="st1" d="M339,1831.2H461l-61-61L339,1831.2L339,1831.2z M465.3,1834.8H334.7h-4.3l3-3l65.3-65.3l1.3-1.3l1.3,1.3
		l65.3,65.3l3,3H465.3z"/>
	<polygon class="st1" points="229.7,2000 200,1970.3 170.3,2000 165.2,2000 198.7,1966.5 200,1965.2 201.3,1966.5 234.8,2000 	"/>
	
		<rect x="172.1" y="1898.6" transform="matrix(0.7071 -0.7071 0.7071 0.7071 -1265.4635 745.6695)" class="st1" width="190.5" height="3.6"/>
	
		<rect x="530.9" y="1805.1" transform="matrix(0.7071 -0.7071 0.7071 0.7071 -1187.7642 933.2426)" class="st1" width="3.6" height="190.5"/>
	<path class="st1" d="M739,1831.2H861l-61-61L739,1831.2L739,1831.2z M865.3,1834.8H734.7h-4.3l3-3l65.3-65.3l1.3-1.3l1.3,1.3
		l65.3,65.3l3,3H865.3z"/>
	<polygon class="st1" points="629.7,2000 600,1970.3 570.3,2000 565.2,2000 598.7,1966.5 600,1965.2 601.3,1966.5 634.8,2000 	"/>
	
		<rect x="572.1" y="1898.6" transform="matrix(0.7071 -0.7071 0.7071 0.7071 -1148.3009 1028.5072)" class="st1" width="190.5" height="3.6"/>
	
		<rect x="930.9" y="1805.1" transform="matrix(0.7071 -0.7071 0.7071 0.7071 -1070.6057 1216.0864)" class="st1" width="3.6" height="190.5"/>
	<path class="st1" d="M1139,1831.2H1261l-61-61L1139,1831.2L1139,1831.2z M1265.3,1834.8h-130.5h-4.3l3-3l65.3-65.3l1.3-1.3l1.3,1.3
		l65.3,65.3l3,3H1265.3z"/>
	<polygon class="st1" points="1029.7,2000 1000,1970.3 970.3,2000 965.2,2000 998.7,1966.5 1000,1965.2 1001.3,1966.5 1034.8,2000 	
		"/>
	
		<rect x="972.1" y="1898.6" transform="matrix(0.7071 -0.7071 0.7071 0.7071 -1031.1429 1311.3505)" class="st1" width="190.5" height="3.6"/>
	
		<rect x="1330.9" y="1805.1" transform="matrix(0.7071 -0.7071 0.7071 0.7071 -953.4448 1498.917)" class="st1" width="3.6" height="190.5"/>
	<path class="st1" d="M1539,1831.2H1661l-61-61L1539,1831.2L1539,1831.2z M1665.3,1834.8h-130.5h-4.3l3-3l65.3-65.3l1.3-1.3l1.3,1.3
		l65.3,65.3l3,3H1665.3z"/>
	<polygon class="st1" points="1429.7,2000 1400,1970.3 1370.3,2000 1365.2,2000 1398.7,1966.5 1400,1965.2 1401.3,1966.5 
		1434.8,2000 	"/>
	
		<rect x="1372.1" y="1898.6" transform="matrix(0.7071 -0.7071 0.7071 0.7071 -913.985 1594.194)" class="st1" width="190.5" height="3.6"/>
	
		<rect x="1730.9" y="1805.1" transform="matrix(0.7071 -0.7071 0.7071 0.7071 -836.288 1781.7594)" class="st1" width="3.6" height="190.5"/>
	<polygon class="st1" points="1939,1831.2 2000,1831.2 2000,1834.8 1934.7,1834.8 1930.4,1834.8 1933.5,1831.7 1998.7,1766.5 
		2000,1765.2 2000,1770.3 	"/>
	<polygon class="st1" points="1829.7,2000 1800,1970.3 1770.3,2000 1765.2,2000 1798.7,1966.5 1800,1965.2 1801.3,1966.5 
		1834.8,2000 	"/>
	
		<rect x="1772.1" y="1898.6" transform="matrix(0.7071 -0.7071 0.7071 0.7071 -796.8272 1877.0533)" class="st1" width="190.5" height="3.6"/>
</g>
</svg>
