<?xml version="1.0" encoding="UTF-8" standalone="no"?>
<!DOCTYPE svg PUBLIC "-//W3C//DTD SVG 1.1//EN" "http://www.w3.org/Graphics/SVG/1.1/DTD/svg11.dtd">
<svg width="100%" height="100%" viewBox="0 0 837 688" version="1.1" xmlns="http://www.w3.org/2000/svg" xmlns:xlink="http://www.w3.org/1999/xlink" xml:space="preserve" xmlns:serif="http://www.serif.com/" style="fill-rule:evenodd;clip-rule:evenodd;stroke-linejoin:round;stroke-miterlimit:2;">
    <g transform="matrix(1,0,0,1,-122.32938,-1893.064617)">
        <g>
            <g transform="matrix(1.150309,0,0,1.150309,-4342.366849,1477.433238)">
                <path d="M3884.925,463.318C3912.425,412.485 3958.259,384.368 4017.425,384.368L4088.259,384.368L4087.425,882.485C4087.425,912.485 4079.092,940.818 4047.425,950.818L4184.092,950.818C4153.259,940.818 4144.092,911.651 4144.092,882.485L4144.092,384.368L4216.592,384.368C4274.092,384.368 4322.425,412.485 4349.092,462.485L4327.425,367.485L3905.759,367.485L3884.925,463.318Z" style="stroke:black;stroke-width:7.24px;"/>
            </g>
            <g transform="matrix(1.838672,0,0,1.838672,-3373.659838,-1212.489673)">
                <g transform="matrix(0.350192,0,0,0.369147,-47.343239,1610.180152)">
                    <path d="M6543.433,1223.18C6560.976,1223.18 6582.148,1213.299 6595.456,1202.209L6592.835,1188.901C6582.349,1205.435 6565.412,1220.558 6544.844,1220.558C6506.734,1220.558 6487.982,1179.827 6487.982,1146.758C6487.982,1115.907 6504.919,1083.443 6539.4,1083.443C6559.967,1083.443 6578.518,1098.163 6589.608,1114.496L6589.608,1094.332C6577.51,1084.653 6558.757,1080.822 6543.433,1080.822C6503.508,1080.822 6471.649,1111.874 6471.649,1152.001C6471.649,1191.926 6503.71,1223.18 6543.433,1223.18Z" style="fill-rule:nonzero;stroke:black;stroke-width:6.3px;"/>
                </g>
                <g transform="matrix(0.350192,0,0,0.369147,-47.343239,1610.180152)">
                    <path d="M6645.261,1222.575C6638.002,1220.357 6635.582,1213.299 6635.582,1206.444L6635.582,1167.325L6660.183,1167.325C6686.799,1167.325 6714.424,1154.622 6714.424,1124.376C6714.424,1093.122 6689.219,1081.427 6661.392,1081.427L6612.192,1081.427C6619.653,1083.645 6621.871,1090.702 6621.871,1097.76L6621.871,1206.04C6621.871,1213.098 6619.854,1220.357 6612.192,1222.575L6645.261,1222.575ZM6635.582,1164.906L6635.582,1083.846L6658.973,1083.846C6684.178,1083.846 6699.502,1099.171 6699.502,1124.376C6699.502,1149.178 6683.774,1164.906 6658.973,1164.906L6635.582,1164.906Z" style="fill-rule:nonzero;stroke:black;stroke-width:6.3px;"/>
                </g>
                <g transform="matrix(0.350192,0,0,0.369147,-47.343239,1610.180152)">
                    <path d="M6763.826,1222.575C6757.575,1220.558 6752.534,1216.727 6752.534,1209.67C6752.534,1206.847 6753.34,1203.822 6754.349,1201.201L6767.455,1167.124L6816.857,1167.124C6819.882,1174.786 6832.585,1205.032 6832.585,1210.88C6832.585,1215.719 6829.157,1220.962 6824.519,1222.575L6860.008,1222.575C6852.951,1220.357 6848.716,1213.299 6846.297,1206.847L6798.105,1079.612L6749.308,1207.25C6746.888,1213.299 6740.637,1220.357 6734.386,1222.575L6763.826,1222.575ZM6768.06,1164.906L6792.055,1101.994L6815.647,1164.906L6768.06,1164.906Z" style="fill-rule:nonzero;stroke:black;stroke-width:6.3px;"/>
                </g>
            </g>
            <g transform="matrix(2.796938,0,0,2.796938,-4845.237161,-3037.561924)">
                <g transform="matrix(0.598498,0,0,0.598498,1891.586517,1760.196102)">
                    <path d="M112.831,4.511C115.978,4.107 115.742,6.083 116.744,12.463C122.998,52.303 86.836,105.814 90.876,153.471C95.853,212.197 142.43,274.181 123.071,352.39C113.405,391.442 88.41,414.194 87.614,413.82C87.056,413.558 86.949,412.694 86.391,412.432C86.447,412.37 98.858,401.32 107.576,379.53C149.475,274.814 63.277,194.939 68.403,119.495C72.428,60.254 116.349,39.926 112.831,4.511Z" style="fill:rgb(230,201,97);"/>
                </g>
                <g transform="matrix(0.598498,0,0,0.598498,1891.586517,1760.196102)">
                    <path d="M109.94,159.548C111.496,149.621 111.661,144.705 118.678,127.576C126.205,109.203 155.174,75.069 148.682,46.48C145.746,33.546 163.019,58.715 165.834,86.461C174.233,169.244 131.58,185.366 123.491,223.495C123.452,223.682 122.705,225.972 121.236,222.697C109.79,197.185 108.134,181.005 109.94,159.548Z" style="fill:rgb(230,201,97);"/>
                </g>
                <g transform="matrix(0.598498,0,0,0.598498,1891.586517,1760.196102)">
                    <path d="M217.778,255.425C217.936,255.95 218.265,280.24 212.565,294.527C192.054,345.943 161.265,341.82 132.362,360.249C126.359,364.076 135.326,336.815 135.777,335.605C152.149,291.633 184.965,288.589 200.084,266.22C218.129,239.524 200.962,216.236 209.317,228.682C217.405,240.731 217.666,255.052 217.778,255.425Z" style="fill:rgb(230,201,97);fill-opacity:1;"/>
                </g>
                <g transform="matrix(0.598498,0,0,0.598498,1891.586517,1760.196102)">
                    <path d="M5.671,179.636L6.503,179.412C6.723,179.46 6.803,178.931 7.023,178.979C9.297,179.48 1.743,196.136 25.81,215.086C42.922,228.559 93.81,229.782 106.957,290.482C107,290.679 107.601,293.455 105.49,292.536C96.948,288.818 97.8,286.515 73.611,281.023C24.083,269.776 7.598,227.836 4.14,209.569C3.671,207.47 2.87,203.083 2.767,202.518C2.852,197.417 2.815,197.509 2.751,192.479C2.864,191.994 3.668,188.535 4.162,186.423C4.851,183.005 4.792,183.08 5.671,179.636Z" style="fill:rgb(230,201,97);"/>
                </g>
                <g transform="matrix(0.598498,0,0,0.598498,1891.586517,1760.196102)">
                    <path d="M78.523,215.421C68.698,207.08 25.515,180.833 43.756,135.6C51.914,115.368 67.491,103.917 65.57,109.509C54.551,141.569 57.993,142.511 65.958,175.398C67.858,183.246 71.107,201.824 78.064,211.748C78.256,212.022 80.3,214.939 80.081,215.411C80.028,215.523 79.965,215.411 78.523,215.421Z" style="fill:rgb(230,201,97);"/>
                </g>
                <g transform="matrix(0.598498,0,0,0.598498,1891.586517,1760.196102)">
                    <path d="M185.394,139.743C199.833,154.785 211.106,221.666 160.849,261.918C137.913,280.288 140.426,282.826 137.316,285.278C133.585,288.22 130.932,258.954 136.274,240.437C149.897,193.207 188.374,191.806 185.829,148.463C185.384,140.885 183.8,141.157 183.977,140.53C184.123,140.01 185.247,140.263 185.394,139.743Z" style="fill:rgb(230,201,97);"/>
                </g>
            </g>
        </g>
    </g>
</svg>
