<?xml version="1.0" encoding="UTF-8" standalone="no"?>
<!DOCTYPE svg PUBLIC "-//W3C//DTD SVG 1.1//EN" "http://www.w3.org/Graphics/SVG/1.1/DTD/svg11.dtd">
<svg width="2055" height="592" viewBox="0 0 2055 592" version="1.1" xmlns="http://www.w3.org/2000/svg" xmlns:xlink="http://www.w3.org/1999/xlink" xml:space="preserve" xmlns:serif="http://www.serif.com/" style="fill-rule:evenodd;clip-rule:evenodd;stroke-linejoin:round;stroke-miterlimit:2;">
    <g transform="matrix(1,0,0,1,-809.910168,-545.18567)">
        <g>
            <g>
                <g transform="matrix(0.697463,0,0,0.754394,-2026.941255,210.989544)">
                    <g transform="matrix(201.640369,0,0,201.640369,6581.946105,1222.574895)">
                    </g>
                    <text x="5893.143px" y="1222.575px" style="font-family:'Branch-Regular', 'Branch';font-size:201.64px;fill:rgb(230,201,97);stroke:rgb(230,201,97);stroke-width:5.74px;">GROUP</text>
                </g>
                <g transform="matrix(0.924534,0,0,1,249.795431,167.095217)">
                    <g transform="matrix(0.686796,0,0,0.723972,-1896.25818,78.643016)">
                        <path d="M6543.433,1223.18C6560.976,1223.18 6582.148,1213.299 6595.456,1202.209L6592.835,1188.901C6582.349,1205.435 6565.412,1220.558 6544.844,1220.558C6506.734,1220.558 6487.982,1179.827 6487.982,1146.758C6487.982,1115.907 6504.919,1083.443 6539.4,1083.443C6559.967,1083.443 6578.518,1098.163 6589.608,1114.496L6589.608,1094.332C6577.51,1084.653 6558.757,1080.822 6543.433,1080.822C6503.508,1080.822 6471.649,1111.874 6471.649,1152.001C6471.649,1191.926 6503.71,1223.18 6543.433,1223.18Z" style="fill:rgb(230,201,97);fill-rule:nonzero;stroke:rgb(230,201,97);stroke-width:6.12px;"/>
                    </g>
                    <g transform="matrix(0.686796,0,0,0.723972,-1896.25818,78.643016)">
                        <path d="M6645.261,1222.575C6638.002,1220.357 6635.582,1213.299 6635.582,1206.444L6635.582,1167.325L6660.183,1167.325C6686.799,1167.325 6714.424,1154.622 6714.424,1124.376C6714.424,1093.122 6689.219,1081.427 6661.392,1081.427L6612.192,1081.427C6619.653,1083.645 6621.871,1090.702 6621.871,1097.76L6621.871,1206.04C6621.871,1213.098 6619.854,1220.357 6612.192,1222.575L6645.261,1222.575ZM6635.582,1164.906L6635.582,1083.846L6658.973,1083.846C6684.178,1083.846 6699.502,1099.171 6699.502,1124.376C6699.502,1149.178 6683.774,1164.906 6658.973,1164.906L6635.582,1164.906Z" style="fill:rgb(230,201,97);fill-rule:nonzero;stroke:rgb(230,201,97);stroke-width:6.12px;"/>
                    </g>
                    <g transform="matrix(0.686796,0,0,0.723972,-1896.25818,78.643016)">
                        <path d="M6763.826,1222.575C6757.575,1220.558 6752.534,1216.727 6752.534,1209.67C6752.534,1206.847 6753.34,1203.822 6754.349,1201.201L6767.455,1167.124L6816.857,1167.124C6819.882,1174.786 6832.585,1205.032 6832.585,1210.88C6832.585,1215.719 6829.157,1220.962 6824.519,1222.575L6860.008,1222.575C6852.951,1220.357 6848.716,1213.299 6846.297,1206.847L6798.105,1079.612L6749.308,1207.25C6746.888,1213.299 6740.637,1220.357 6734.386,1222.575L6763.826,1222.575ZM6768.06,1164.906L6792.055,1101.994L6815.647,1164.906L6768.06,1164.906Z" style="fill:rgb(230,201,97);fill-rule:nonzero;stroke:rgb(230,201,97);stroke-width:6.12px;"/>
                    </g>
                </g>
            </g>
            <g transform="matrix(1,0,0,1,18,0)">
                <g transform="matrix(1.173775,0,0,1.061417,1943.721558,540.450991)">
                    <path d="M112.831,4.511C115.978,4.107 115.742,6.083 116.744,12.463C122.998,52.303 86.836,105.814 90.876,153.471C95.853,212.197 142.43,274.181 123.071,352.39C113.405,391.442 88.41,414.194 87.614,413.82C87.056,413.558 86.949,412.694 86.391,412.432C86.447,412.37 98.858,401.32 107.576,379.53C149.475,274.814 63.277,194.939 68.403,119.495C72.428,60.254 116.349,39.926 112.831,4.511Z" style="fill:rgb(229,200,96);"/>
                </g>
                <g transform="matrix(1.173775,0,0,1.061417,1943.721558,540.450991)">
                    <path d="M109.94,159.548C111.496,149.621 111.661,144.705 118.678,127.576C126.205,109.203 155.174,75.069 148.682,46.48C145.746,33.546 163.019,58.715 165.834,86.461C174.233,169.244 131.58,185.366 123.491,223.495C123.452,223.682 122.705,225.972 121.236,222.697C109.79,197.185 108.134,181.005 109.94,159.548Z" style="fill:rgb(229,200,96);"/>
                </g>
                <g transform="matrix(1.173775,0,0,1.061417,1943.721558,540.450991)">
                    <path d="M217.778,255.425C217.936,255.95 218.265,280.24 212.565,294.527C192.054,345.943 161.265,341.82 132.362,360.249C126.359,364.076 135.326,336.815 135.777,335.605C152.149,291.633 184.965,288.589 200.084,266.22C218.129,239.524 200.962,216.236 209.317,228.682C217.405,240.731 217.666,255.052 217.778,255.425Z" style="fill:rgb(229,200,96);fill-opacity:1;"/>
                </g>
                <g transform="matrix(1.173775,0,0,1.061417,1943.721558,540.450991)">
                    <path d="M5.671,179.636L6.503,179.412C6.723,179.46 6.803,178.931 7.023,178.979C9.297,179.48 1.743,196.136 25.81,215.086C42.922,228.559 93.81,229.782 106.957,290.482C107,290.679 107.601,293.455 105.49,292.536C96.948,288.818 97.8,286.515 73.611,281.023C24.083,269.776 7.598,227.836 4.14,209.569C3.671,207.47 2.87,203.083 2.767,202.518C2.852,197.417 2.815,197.509 2.751,192.479C2.864,191.994 3.668,188.535 4.162,186.423C4.851,183.005 4.792,183.08 5.671,179.636Z" style="fill:rgb(229,200,96);"/>
                </g>
                <g transform="matrix(1.173775,0,0,1.061417,1943.721558,540.450991)">
                    <path d="M78.523,215.421C68.698,207.08 25.515,180.833 43.756,135.6C51.914,115.368 67.491,103.917 65.57,109.509C54.551,141.569 57.993,142.511 65.958,175.398C67.858,183.246 71.107,201.824 78.064,211.748C78.256,212.022 80.3,214.939 80.081,215.411C80.028,215.523 79.965,215.411 78.523,215.421Z" style="fill:rgb(229,200,96);"/>
                </g>
                <g transform="matrix(1.173775,0,0,1.061417,1943.721558,540.450991)">
                    <path d="M185.394,139.743C199.833,154.785 211.106,221.666 160.849,261.918C137.913,280.288 140.426,282.826 137.316,285.278C133.585,288.22 130.932,258.954 136.274,240.437C149.897,193.207 188.374,191.806 185.829,148.463C185.384,140.885 183.8,141.157 183.977,140.53C184.123,140.01 185.247,140.263 185.394,139.743Z" style="fill:rgb(229,200,96);"/>
                </g>
            </g>
            <g transform="matrix(0.705704,0,0,0.705704,-1927.529111,303.514469)">
                <path d="M3884.925,463.318C3912.425,412.485 3958.259,384.368 4017.425,384.368L4088.259,384.368L4087.425,882.485C4087.425,912.485 4079.092,940.818 4047.425,950.818L4184.092,950.818C4153.259,940.818 4144.092,911.651 4144.092,882.485L4144.092,384.368L4216.592,384.368C4274.092,384.368 4322.425,412.485 4349.092,462.485L4327.425,367.485L3905.759,367.485L3884.925,463.318Z" style="stroke:black;stroke-width:11.81px;"/>
            </g>
            <g transform="matrix(0.705704,0,0,0.705704,-1927.529111,303.514469)">
                <path d="M4629.092,950.818C4599.092,940.818 4589.092,913.318 4589.092,884.151L4589.092,656.651L4883.259,656.651L4883.259,882.485C4883.259,912.485 4874.925,940.818 4843.259,950.818L4979.925,950.818C4949.092,940.818 4939.925,912.485 4939.925,882.485L4939.925,434.151C4939.925,404.151 4948.259,377.485 4979.925,367.485L4843.259,367.485C4874.925,377.485 4883.259,404.151 4883.259,434.151L4883.259,635.312L4589.092,635.312L4589.092,434.151C4589.092,404.151 4597.425,377.485 4629.092,367.485L4492.425,367.485C4524.092,377.485 4532.425,404.151 4532.425,434.151L4532.425,884.151C4532.425,914.985 4524.092,940.818 4492.425,950.818L4629.092,950.818Z" style="stroke:black;stroke-width:11.81px;"/>
            </g>
            <g transform="matrix(0.705704,0,0,0.705704,-1927.529111,303.514469)">
                <path d="M5070.759,367.485C5101.592,376.651 5110.759,404.985 5110.759,434.151L5110.759,882.485C5110.759,912.485 5102.425,940.818 5070.759,950.818L5207.425,950.818C5177.425,940.818 5167.425,913.318 5167.425,884.151L5167.425,735.563L5279.925,735.563L5426.592,950.818L5519.925,950.818C5495.759,940.818 5472.425,924.985 5458.259,902.485L5346.881,729.657C5434.381,711.324 5493.259,638.318 5493.259,544.985C5493.259,416.651 5380.759,367.485 5268.259,367.485L5070.759,367.485ZM5264.925,377.485C5369.092,377.485 5432.425,440.818 5432.425,544.985C5432.425,646.651 5366.592,712.485 5264.925,712.485L5167.425,712.485L5167.425,377.485L5264.925,377.485Z" style="stroke:black;stroke-width:11.81px;"/>
            </g>
            <g transform="matrix(0.705704,0,0,0.705704,-1925.317765,303.514469)">
                <path d="M5854.092,435.818L6064.925,950.818L6277.425,433.318C6290.759,399.985 6311.592,378.318 6346.592,367.485L6228.259,367.485C6249.925,371.651 6272.425,389.151 6272.425,413.318C6272.425,419.985 6270.759,426.651 6268.259,432.485L6089.925,863.318L5915.759,436.651C5913.259,429.985 5911.592,422.485 5911.592,414.985C5911.592,395.818 5922.425,373.318 5941.592,367.485L5800.759,367.485C5829.092,379.151 5843.259,409.151 5854.092,435.818Z" style="stroke:black;stroke-width:11.81px;"/>
            </g>
            <g transform="matrix(0.705704,0,0,0.705704,-1927.529111,303.514469)">
                <path d="M6760.759,950.818L6784.925,851.651C6754.092,909.985 6697.425,935.601 6632.425,935.601L6489.925,935.601L6489.925,666.107L6588.259,666.107C6624.092,666.107 6655.759,677.774 6667.425,714.44L6667.425,599.985C6655.759,636.651 6624.092,649.151 6588.259,649.151L6489.925,649.151L6489.925,382.702L6633.259,382.702C6699.925,382.702 6748.259,408.318 6779.092,466.651L6756.592,367.485L6393.259,367.485C6424.925,377.485 6433.259,404.151 6433.259,434.151L6433.259,882.485C6433.259,912.485 6424.925,940.818 6393.259,950.818L6760.759,950.818Z" style="stroke:black;stroke-width:11.81px;"/>
            </g>
        </g>
    </g>
</svg>
