<?xml version="1.0" encoding="UTF-8" standalone="no"?>
<svg width="361" height="686" viewBox="0 0 361 686" version="1.1" xmlns="http://www.w3.org/2000/svg" xmlns:xlink="http://www.w3.org/1999/xlink" xml:space="preserve" style="fill-rule:evenodd;clip-rule:evenodd;stroke-linejoin:round;stroke-miterlimit:2;">
    <g transform="matrix(1,0,0,1,-450.017905,-1893.064617)">
        <g transform="matrix(2.796938,0,0,2.796938,-4845.237161,-3037.561924)">
            <g transform="matrix(0.598498,0,0,0.598498,1891.586517,1760.196102)">
                <path d="M112.831,4.511C115.978,4.107 115.742,6.083 116.744,12.463C122.998,52.303 86.836,105.814 90.876,153.471C95.853,212.197 142.43,274.181 123.071,352.39C113.405,391.442 88.41,414.194 87.614,413.82C87.056,413.558 86.949,412.694 86.391,412.432C86.447,412.37 98.858,401.32 107.576,379.53C149.475,274.814 63.277,194.939 68.403,119.495C72.428,60.254 116.349,39.926 112.831,4.511Z" style="fill:#ffffff;"/>
            </g>
            <g transform="matrix(0.598498,0,0,0.598498,1891.586517,1760.196102)">
                <path d="M109.94,159.548C111.496,149.621 111.661,144.705 118.678,127.576C126.205,109.203 155.174,75.069 148.682,46.48C145.746,33.546 163.019,58.715 165.834,86.461C174.233,169.244 131.58,185.366 123.491,223.495C123.452,223.682 122.705,225.972 121.236,222.697C109.79,197.185 108.134,181.005 109.94,159.548Z" style="fill:#ffffff;"/>
            </g>
            <g transform="matrix(0.598498,0,0,0.598498,1891.586517,1760.196102)">
                <path d="M217.778,255.425C217.936,255.95 218.265,280.24 212.565,294.527C192.054,345.943 161.265,341.82 132.362,360.249C126.359,364.076 135.326,336.815 135.777,335.605C152.149,291.633 184.965,288.589 200.084,266.22C218.129,239.524 200.962,216.236 209.317,228.682C217.405,240.731 217.666,255.052 217.778,255.425Z" style="fill:#ffffff;fill-opacity:1;"/>
            </g>
            <g transform="matrix(0.598498,0,0,0.598498,1891.586517,1760.196102)">
                <path d="M5.671,179.636L6.503,179.412C6.723,179.46 6.803,178.931 7.023,178.979C9.297,179.48 1.743,196.136 25.81,215.086C42.922,228.559 93.81,229.782 106.957,290.482C107,290.679 107.601,293.455 105.49,292.536C96.948,288.818 97.8,286.515 73.611,281.023C24.083,269.776 7.598,227.836 4.14,209.569C3.671,207.47 2.87,203.083 2.767,202.518C2.852,197.417 2.815,197.509 2.751,192.479C2.864,191.994 3.668,188.535 4.162,186.423C4.851,183.005 4.792,183.08 5.671,179.636Z" style="fill:#ffffff;"/>
            </g>
            <g transform="matrix(0.598498,0,0,0.598498,1891.586517,1760.196102)">
                <path d="M78.523,215.421C68.698,207.08 25.515,180.833 43.756,135.6C51.914,115.368 67.491,103.917 65.57,109.509C54.551,141.569 57.993,142.511 65.958,175.398C67.858,183.246 71.107,201.824 78.064,211.748C78.256,212.022 80.3,214.939 80.081,215.411C80.028,215.523 79.965,215.411 78.523,215.421Z" style="fill:#ffffff;"/>
            </g>
            <g transform="matrix(0.598498,0,0,0.598498,1891.586517,1760.196102)">
                <path d="M185.394,139.743C199.833,154.785 211.106,221.666 160.849,261.918C137.913,280.288 140.426,282.826 137.316,285.278C133.585,288.22 130.932,258.954 136.274,240.437C149.897,193.207 188.374,191.806 185.829,148.463C185.384,140.885 183.8,141.157 183.977,140.53C184.123,140.01 185.247,140.263 185.394,139.743Z" style="fill:#ffffff;"/>
            </g>
        </g>
    </g>
</svg>
